<svg width="24" height="24" viewBox="0 0 24 24" fill="none" xmlns="http://www.w3.org/2000/svg">
<path d="M19.439 5.63592L5.63579 19.4391C5.32139 19.7535 4.82024 19.7739 4.53033 19.4839C4.24042 19.194 4.26073 18.6929 4.57513 18.3785L18.3784 4.57526C18.6928 4.26085 19.1939 4.24054 19.4838 4.53045C19.7737 4.82037 19.7534 5.32151 19.439 5.63592Z" fill="#8A8A8A"/>
<path d="M5.63543 4.57514L19.4387 18.3784C19.7531 18.6928 19.7734 19.1939 19.4835 19.4838C19.1935 19.7737 18.6924 19.7534 18.378 19.439L4.57477 5.6358C4.26036 5.3214 4.24005 4.82025 4.52996 4.53034C4.81988 4.24043 5.32102 4.26074 5.63543 4.57514Z" fill="#8A8A8A"/>
</svg>
