<svg width="24" height="25" viewBox="0 0 24 25" fill="none" xmlns="http://www.w3.org/2000/svg">
<path d="M16 13.1422V17.3422C16 20.8422 14.6 22.2422 11.1 22.2422H6.9C3.4 22.2422 2 20.8422 2 17.3422V13.1422C2 9.64219 3.4 8.24219 6.9 8.24219H11.1C14.6 8.24219 16 9.64219 16 13.1422Z" stroke="#8A8A8A" stroke-width="2" stroke-linecap="round" stroke-linejoin="round"/>
<path d="M22 7.14219V11.3422C22 14.8422 20.6 16.2422 17.1 16.2422H16V13.1422C16 9.64219 14.6 8.24219 11.1 8.24219H8V7.14219C8 3.64219 9.4 2.24219 12.9 2.24219H17.1C20.6 2.24219 22 3.64219 22 7.14219Z" stroke="#8A8A8A" stroke-width="2" stroke-linecap="round" stroke-linejoin="round"/>
</svg>
