<svg width="399" height="265" viewBox="0 0 399 265" fill="none" xmlns="http://www.w3.org/2000/svg">
<path d="M271.025 87.0577H188.113C174.653 87.0577 163.616 76.0207 163.616 62.5609V24.4967C163.616 11.0369 174.653 -6.10352e-05 188.113 -6.10352e-05H271.025C284.485 -6.10352e-05 295.522 11.0369 295.522 24.4967V62.5609C295.522 76.0207 284.485 87.0577 271.025 87.0577Z" fill="#6FCF97"/>
<path d="M257.673 154.572C257.673 154.572 260.15 152.041 259.504 147.734C258.858 143.427 258.265 140.251 253.689 138.851C249.113 137.451 244.159 137.02 242.49 132.444C242.49 132.444 242.06 130.021 242.975 124.045C243.89 118.069 247.067 101.917 247.067 101.917C247.067 101.917 247.551 93.9491 239.529 90.2342C231.561 86.5193 224.185 86.3578 224.185 86.3578C224.185 86.3578 212.341 86.8962 207.495 88.3498C202.65 89.8035 202.111 96.6949 202.165 99.4945C202.219 102.294 202.165 105.417 202.165 105.417L227.092 123.238C227.092 123.238 222.193 126.253 220.632 133.844C219.07 141.435 220.793 148.757 225.477 151.718C230.161 154.626 241.144 155.703 249.274 150.265L257.673 154.572Z" fill="#263238"/>
<path d="M177.938 256.005L219.501 256.435C219.501 256.435 212.448 247.552 211.748 242.114C211.748 242.114 180.414 255.628 177.938 256.005Z" fill="#263238"/>
<path d="M47.1621 163.617L54.4304 159.794H155.756L161.624 162.163L165.231 166.793L188.597 236.515L189.62 241.953L189.028 246.475L185.905 251.644L182.567 254.443L178.852 256.005H172.499L73.1125 256.543L47.1621 163.617Z" fill="white"/>
<path d="M336.278 236.246V235.008C336.278 235.008 333.425 233.231 323.841 233.231C314.312 233.231 312.75 235.438 312.75 235.438V262.142C312.75 262.142 315.873 263.704 324.434 263.704C332.994 263.704 336.063 262.142 336.063 262.142L336.494 257.781C336.494 257.781 347.1 256.758 347.1 247.121C347.1 237.484 341.124 237.215 336.278 236.246ZM336.44 254.013V240.122C336.44 240.122 343.223 239.207 343.493 245.075C343.869 251.859 336.44 254.013 336.44 254.013Z" fill="#263238"/>
<path d="M357.545 76.6667H283.462C276.086 76.6667 270.056 82.6967 270.056 90.0727V110.155V139.712L286.208 123.561H357.598C364.974 123.561 371.004 117.531 371.004 110.155V90.0727C371.004 82.6967 364.974 76.6667 357.545 76.6667Z" fill="#263238"/>
<path d="M92.1716 104.986L85.4417 85.8732H47.1621L56.7455 112.9H94.4328L92.1716 104.986Z" fill="#6FCF97"/>
<path d="M168.677 256.489H73.7047C67.4593 256.489 61.9139 252.667 59.9219 246.96L37.3633 181.868C34.2406 172.877 41.2397 163.617 51.1461 163.617H146.118C152.364 163.617 157.909 167.44 159.901 173.146L182.406 238.184C185.582 247.175 178.583 256.489 168.677 256.489Z" fill="#263238"/>
<path d="M212.233 145.096C212.233 145.096 193.874 147.573 185.905 158.071C177.937 168.57 171.046 182.245 171.046 182.245L188.382 235.923C188.382 235.923 190.266 231.723 191.666 231.508C193.066 231.293 197.481 231.508 198.988 233.177C198.988 233.177 203.619 230.969 209.218 234.469C209.218 234.469 215.032 233.715 220.201 236.569C225.37 239.368 229.946 241.36 229.946 241.36C229.946 241.36 230.43 251.698 223.485 256.22L290.192 256.489C290.192 256.489 295.306 245.668 294.607 236.515C293.853 227.362 290.945 210.295 287.069 202.219C283.247 194.144 278.993 183.107 273.879 175.138C268.764 167.17 263.972 160.71 259.127 155.918L249.974 150.211C249.974 150.211 239.745 155.11 232.046 153.818C224.293 152.526 223.862 150.534 223.862 150.534C223.862 150.534 218.263 158.717 214.871 158.179C211.425 157.641 212.233 145.096 212.233 145.096Z" fill="#6FCF97"/>
<path d="M324.272 235.007C319.05 235.007 314.85 235.869 314.85 236.946L324.272 237.484L333.694 236.946C333.694 235.923 329.494 235.007 324.272 235.007Z" fill="white"/>
<path d="M205.18 94.972C205.18 94.972 202.865 102.994 202.65 104.932C202.435 106.817 202.273 117.746 201.95 121.138C201.573 124.53 203.135 136.267 211.426 135.244L212.287 145.096C212.287 145.096 211.426 157.91 214.872 158.179C218.317 158.394 223.863 150.534 223.863 150.534C223.863 150.534 219.717 146.819 219.932 139.282C220.148 131.744 223.486 126.306 227.793 123.238C227.793 123.238 224.993 116.669 227.147 112.577C227.147 112.577 218.21 111.124 214.064 107.194C209.864 103.209 207.334 101.002 205.18 94.972Z" fill="white"/>
<path d="M230.215 241.522C230.215 241.522 223.808 237.538 218.37 235.707C212.933 233.877 209.971 234.469 209.971 234.469C209.971 234.469 205.718 232.8 203.618 232.531C201.519 232.262 199.311 233.392 199.311 233.392C199.311 233.392 197.319 231.562 194.52 231.508C191.72 231.508 189.566 233.015 188.436 235.869C188.436 235.869 190.105 240.499 189.62 243.137C189.19 245.721 187.413 252.667 182.567 254.443C182.567 254.443 185.421 258.051 189.674 254.228C189.674 254.228 192.528 257.081 199.85 256.489C199.85 256.489 205.88 257.028 207.926 254.928C209.971 252.882 212.448 248.359 212.448 248.359C212.448 248.359 214.063 256.866 222.57 256.543C222.57 256.543 225.746 255.574 228.061 250.621C230.43 245.668 230.215 241.522 230.215 241.522Z" fill="white"/>
<path d="M107.731 209.38C110.638 214.387 110.315 219.986 106.977 221.925C103.693 223.809 98.6862 221.332 95.7789 216.325C92.8716 211.318 93.1946 205.719 96.5326 203.781C99.8168 201.843 104.824 204.319 107.731 209.38Z" fill="white"/>
<path d="M96.748 116.131H147.626L160.278 151.988H109.562L96.748 116.131Z" fill="#6FCF97"/>
<path d="M291.915 94.5413C291.915 97.9332 289.169 100.679 285.777 100.679C282.385 100.679 279.64 97.9332 279.64 94.5413C279.64 91.1495 282.385 88.4037 285.777 88.4037C289.169 88.4037 291.915 91.1495 291.915 94.5413Z" fill="white"/>
<path d="M321.257 94.5413C321.257 97.9332 318.511 100.679 315.12 100.679C311.728 100.679 308.982 97.9332 308.982 94.5413C308.982 91.1495 311.728 88.4037 315.12 88.4037C318.511 88.4037 321.257 91.1495 321.257 94.5413Z" fill="white"/>
<path d="M345.592 88.4037C348.984 88.4037 351.73 91.1495 351.73 94.5413C351.73 97.9332 348.984 100.679 345.592 100.679C342.2 100.679 339.455 97.9332 339.455 94.5413C339.455 91.1495 342.2 88.4037 345.592 88.4037Z" fill="white"/>
<path d="M222.732 60.3536L240.553 29.8269L243.352 27.1888L245.398 26.8657L247.982 28.4271L267.149 60.892L267.849 63.8532L266.072 66.7605L264.134 67.5681L224.724 67.2989L222.732 66.1144L221.763 63.8532L222.732 60.3536Z" fill="white"/>
<path d="M206.58 134.059C206.58 134.059 201.357 141.004 205.772 146.335L212.233 145.096L211.371 135.244C211.425 135.244 207.872 135.19 206.58 134.059Z" fill="#263238"/>
<path d="M241.091 116.669C241.091 122.376 237.807 127.06 233.822 127.06C229.785 127.06 226.554 122.43 226.554 116.669C226.554 110.962 229.838 106.278 233.822 106.278C237.86 106.278 241.091 110.962 241.091 116.669Z" fill="#BDBDBD"/>
<path d="M235.222 127.06C238.077 127.06 240.391 122.529 240.391 116.938C240.391 111.348 238.077 106.817 235.222 106.817C232.368 106.817 230.054 111.348 230.054 116.938C230.054 122.529 232.368 127.06 235.222 127.06Z" fill="white"/>
<path d="M231.722 106.171C231.722 106.171 230.915 96.2104 225.639 91.9033C219.716 87.0578 212.933 86.9501 212.933 86.9501C212.933 86.9501 214.279 85.4426 217.94 85.3888C221.601 85.3349 225.908 86.6809 229.569 89.5882C233.284 92.4417 235.76 99.1716 235.168 105.794L231.722 106.171Z" fill="#6FCF97"/>
<path d="M229.892 241.307C229.892 241.307 218.371 234.631 213.794 234.523C209.218 234.415 209.918 234.415 209.918 234.415C209.918 234.415 201.519 230.97 199.742 232.585C199.742 232.585 205.664 224.617 216.325 225.478C227.039 226.393 229.946 239.853 229.892 241.307Z" fill="#263238"/>
<path d="M66.1133 80.2201C65.898 80.2201 65.6288 80.0586 65.5749 79.8433C64.8212 77.7435 64.2828 75.5361 63.9059 73.3287C63.8521 73.0057 64.0675 72.7365 64.3905 72.6827C64.7135 72.6288 64.9827 72.8442 65.0366 73.1672C65.4134 75.3208 65.9518 77.4743 66.6517 79.5202C66.7594 79.8432 66.5979 80.1663 66.2749 80.274C66.221 80.2201 66.1672 80.2201 66.1133 80.2201ZM64.0136 67.1911C63.6906 67.1911 63.4214 66.9219 63.4214 66.5988C63.4752 64.3376 63.6906 62.0764 64.1213 59.869C64.1751 59.5459 64.4982 59.3306 64.8212 59.4382C65.1442 59.4921 65.3596 59.8151 65.2519 60.1381C64.8212 62.2917 64.6058 64.4453 64.552 66.6527C64.552 66.9219 64.2828 67.1911 64.0136 67.1911ZM66.5441 54.2159C66.4902 54.2159 66.3825 54.2159 66.3287 54.162C66.0057 54.0543 65.898 53.7313 66.0057 53.4083C66.5979 51.9546 67.244 50.5548 67.9439 49.2088C68.2669 48.6166 68.6438 47.9705 69.0206 47.3783C69.1822 47.1091 69.559 47.0014 69.8282 47.2168C70.0974 47.3783 70.2051 47.7552 69.9898 48.0244C69.6129 48.6166 69.2898 49.2088 68.9668 49.801C68.2669 51.0932 67.6208 52.493 67.0824 53.8928C66.9748 54.0543 66.7594 54.2159 66.5441 54.2159ZM110.692 52.9776C109.992 52.9776 109.238 52.816 108.485 52.4392C108.215 52.3315 108.054 51.9546 108.215 51.6854C108.323 51.3624 108.7 51.2547 108.969 51.4162C109.561 51.6854 110.154 51.8469 110.692 51.8469C112.415 51.8469 113.223 50.3933 113.546 49.5857C113.653 49.2627 113.976 49.155 114.299 49.2627C114.622 49.3703 114.73 49.6934 114.622 50.0164C113.922 51.8469 112.469 52.9776 110.692 52.9776ZM103.801 48.1859C103.639 48.1859 103.424 48.0782 103.316 47.9705C102.024 46.1938 101.055 44.0941 100.463 41.779C100.355 41.456 100.57 41.133 100.893 41.0791C101.216 40.9714 101.539 41.1868 101.593 41.5098C102.186 43.7172 103.047 45.6554 104.231 47.3245C104.393 47.5937 104.339 47.9705 104.124 48.132C104.016 48.132 103.908 48.1859 103.801 48.1859ZM113.815 43.8249C113.599 43.8249 113.384 43.6634 113.276 43.448C112.738 42.0482 111.877 40.8099 110.8 39.787C110.315 39.3563 109.885 38.9256 109.346 38.5487C109.077 38.3333 109.023 38.0103 109.238 37.7411C109.454 37.4719 109.777 37.4181 110.046 37.6334C110.584 38.0641 111.069 38.441 111.554 38.9256C112.792 40.0562 113.707 41.4022 114.299 43.0173C114.407 43.3404 114.299 43.6634 113.976 43.7711C113.922 43.8249 113.869 43.8249 113.815 43.8249ZM73.597 43.0173C73.4355 43.0173 73.3278 42.9635 73.2201 42.8558C73.0047 42.6405 73.0047 42.2636 73.2201 42.0482C74.7814 40.3792 76.5043 38.9256 78.3348 37.6334C78.604 37.4719 78.9809 37.5257 79.1424 37.7949C79.3039 38.0641 79.2501 38.441 78.9809 38.6025C77.2042 39.8408 75.5352 41.2406 74.0277 42.8558C73.8662 42.9635 73.7046 43.0173 73.597 43.0173ZM100.301 35.5875C99.9243 35.5875 99.7089 35.3183 99.7089 34.9953C99.7089 34.7261 99.7089 34.4569 99.7089 34.1877C98.9552 34.0262 98.2014 33.9185 97.3938 33.8108C97.0708 33.757 96.8554 33.4878 96.9093 33.1648C96.9631 32.8417 97.2323 32.6264 97.5554 32.6802C98.3091 32.7879 99.0628 32.8956 99.8166 33.0571C99.9243 31.4958 100.193 29.8806 100.624 28.3193C100.678 27.9962 101.001 27.7809 101.324 27.8886C101.647 27.9424 101.809 28.2654 101.755 28.5885C101.378 30.1498 101.109 31.765 101.001 33.3263C102.078 33.5955 103.155 33.9185 104.178 34.3492C104.501 34.4569 104.608 34.7799 104.501 35.103C104.393 35.426 104.016 35.5337 103.747 35.426C102.832 35.0491 101.862 34.78 100.893 34.5108C100.893 34.6723 100.893 34.8876 100.893 35.0491C100.84 35.3183 100.624 35.5875 100.301 35.5875ZM84.4725 35.5337C84.2571 35.5337 84.0417 35.3722 83.9341 35.1568C83.8264 34.8338 83.9341 34.5108 84.2571 34.4031C85.3877 33.9185 86.5722 33.5417 87.7566 33.2725C88.7257 33.0033 89.7487 32.8417 90.8255 32.6802C91.1485 32.6264 91.4177 32.8417 91.4715 33.1648C91.5254 33.4878 91.31 33.757 90.987 33.8108C89.964 33.9724 88.9949 34.1339 88.0797 34.3492C86.9491 34.6184 85.8184 34.9953 84.7417 35.426C84.5801 35.5337 84.5263 35.5337 84.4725 35.5337ZM103.478 22.7738C103.37 22.7738 103.316 22.7738 103.208 22.72C102.939 22.5585 102.832 22.2354 102.939 21.9663C104.07 19.8127 105.362 18.036 106.87 16.6362C107.085 16.4208 107.569 16.367 107.785 16.5823C108 16.7977 108.054 17.1207 107.839 17.3361C106.277 18.7898 105.039 20.4588 104.016 22.5046C103.855 22.6662 103.693 22.7738 103.478 22.7738ZM112.523 13.2443C112.361 13.2443 112.2 13.1905 112.038 13.029C111.823 12.7598 111.877 12.4367 112.146 12.2214C113.976 10.8216 115.861 9.58327 117.745 8.50649C118.014 8.34497 118.391 8.45265 118.553 8.72185C118.714 8.99104 118.606 9.36791 118.337 9.52943C116.507 10.6062 114.676 11.7907 112.846 13.1905C112.738 13.1905 112.63 13.2443 112.523 13.2443ZM155.971 9.31407C155.863 9.31407 155.755 9.31408 155.648 9.2064C153.763 8.07578 151.771 7.10667 149.779 6.35293C149.456 6.24525 149.349 5.92221 149.456 5.59918C149.564 5.27614 149.887 5.11463 150.21 5.27615C152.31 6.08373 154.356 7.05283 156.294 8.23729C156.563 8.39881 156.671 8.77568 156.509 9.04488C156.348 9.2064 156.132 9.31407 155.971 9.31407ZM123.99 6.67596C123.775 6.67596 123.56 6.51444 123.452 6.29909C123.344 5.97605 123.452 5.65302 123.775 5.54534C125.929 4.68392 128.082 4.03785 130.236 3.60713C130.559 3.5533 130.828 3.76865 130.936 4.03785C130.989 4.36088 130.774 4.63008 130.505 4.73775C128.405 5.16847 126.305 5.81454 124.26 6.62212C124.152 6.62212 124.098 6.67596 123.99 6.67596ZM143.588 4.63008C141.488 4.2532 139.388 4.09169 137.396 4.09169H137.019C136.696 4.09169 136.427 3.82249 136.427 3.49946C136.427 3.17642 136.696 2.90723 137.019 2.90723H137.396C139.496 2.90723 141.65 3.12258 143.749 3.49946C144.072 3.5533 144.288 3.87633 144.234 4.19936C144.072 4.41472 143.857 4.63008 143.588 4.63008Z" fill="#263238"/>
<path d="M229.569 109.132C215.571 109.078 210.133 89.6959 209.595 87.8115C208.787 87.973 208.034 88.1346 207.441 88.3499C202.596 89.8036 202.057 96.695 202.111 99.4946C202.165 102.294 202.111 105.417 202.111 105.417L223.055 120.438C230.054 116.239 239.96 109.186 229.569 109.132Z" fill="white"/>
<path d="M225.693 140.735C224.185 131.529 229.462 125.068 229.462 125.068C229.462 125.068 233.123 115.646 232.854 114.839C232.638 114.193 222.14 115.162 216.648 115.754L227.093 123.238C227.093 123.238 222.193 126.253 220.632 133.844C219.071 141.435 220.794 148.757 225.478 151.718C228.439 153.549 233.984 154.68 239.691 153.818C232.961 153.118 226.877 148.057 225.693 140.735Z" fill="white"/>
<path d="M210.241 135.19C209.11 135.082 207.387 134.813 206.58 134.059C206.58 134.059 201.357 141.004 205.772 146.335L209.487 145.635C206.849 139.443 210.241 135.19 210.241 135.19Z" fill="white"/>
<path d="M322.118 222.032C317.111 222.032 313.288 220.363 310.758 216.971C307.043 212.072 307.151 205.18 308.12 202.004C309.574 197.212 309.251 195.651 308.228 190.913L308.066 190.213C307.366 186.983 308.551 183.16 310.973 180.468C313.342 177.83 316.627 176.646 320.341 177.023C324.11 177.4 326.964 179.015 328.686 181.707C330.571 184.614 330.84 188.598 329.548 192.582C327.502 198.774 329.602 201.358 329.656 201.412C332.832 204.857 334.824 211.318 332.724 216.271C331.648 218.802 329.063 221.871 322.71 222.086C322.549 222.032 322.333 222.032 322.118 222.032ZM318.995 178.099C315.496 178.099 313.181 179.768 311.835 181.222C309.681 183.591 308.604 187.144 309.197 189.998L309.358 190.698C310.381 195.543 310.758 197.32 309.197 202.381C308.228 205.557 308.335 212.018 311.619 216.325C314.042 219.502 317.811 221.063 322.71 220.901C327.233 220.74 330.302 219.017 331.701 215.787C333.586 211.318 331.648 205.288 328.794 202.165C328.686 202.058 326.156 199.151 328.417 192.205C329.656 188.544 329.386 184.937 327.663 182.353C326.156 179.984 323.572 178.584 320.18 178.207C319.803 178.153 319.372 178.099 318.995 178.099Z" fill="#263238"/>
<path d="M304.944 171.047C302.359 171.047 300.367 168.085 300.367 164.317C300.367 160.548 302.359 157.587 304.944 157.587C307.528 157.587 309.574 160.548 309.574 164.317C309.574 168.032 307.474 171.047 304.944 171.047ZM304.944 158.717C303.059 158.717 301.498 161.248 301.498 164.317C301.498 167.332 303.059 169.916 304.944 169.916C306.828 169.916 308.389 167.386 308.389 164.317C308.389 161.302 306.828 158.717 304.944 158.717Z" fill="#263238"/>
<path d="M336.331 254.659C336.062 254.659 335.847 254.497 335.793 254.228C335.739 253.905 335.9 253.636 336.223 253.528C336.493 253.474 342.576 252.02 342.953 245.937C343.061 244.322 342.63 243.083 341.715 242.222C339.831 240.445 336.439 240.768 336.385 240.768C336.062 240.822 335.793 240.553 335.739 240.23C335.685 239.907 335.954 239.638 336.277 239.584C336.439 239.584 340.261 239.207 342.523 241.36C343.707 242.491 344.192 244.052 344.084 245.991C343.653 252.936 336.493 254.605 336.439 254.659C336.385 254.605 336.331 254.659 336.331 254.659Z" fill="#263238"/>
<path d="M336.547 258.374C336.278 258.374 336.009 258.158 335.955 257.835C335.901 257.512 336.17 257.243 336.493 257.189C336.924 257.135 347.261 256.005 346.508 246.045C346.292 242.976 345.269 240.607 343.385 239.099C340.478 236.677 336.493 237.107 336.44 237.107C336.117 237.161 335.847 236.892 335.794 236.623C335.74 236.3 336.009 236.03 336.278 235.977C336.44 235.977 340.747 235.492 344.085 238.184C346.184 239.907 347.369 242.545 347.638 245.937C348.446 257.028 336.655 258.32 336.547 258.32C336.601 258.374 336.601 258.374 336.547 258.374Z" fill="#263238"/>
<path d="M324.488 264.242C322.442 264.242 312.213 264.135 312.213 261.819C312.213 261.496 312.482 261.227 312.805 261.227C313.074 261.227 313.343 261.443 313.397 261.712C313.936 262.304 318.135 263.112 324.542 263.112C331.11 263.112 335.364 262.304 335.848 261.712C335.848 261.389 336.064 261.173 336.387 261.173C336.71 261.173 336.925 261.496 336.925 261.819C336.871 264.135 326.534 264.242 324.488 264.242Z" fill="#263238"/>
<path d="M312.751 262.411C312.428 262.411 312.159 262.142 312.159 261.819V235.438C312.159 235.115 312.428 234.846 312.751 234.846C313.074 234.846 313.343 235.115 313.343 235.438V261.819C313.343 262.142 313.074 262.411 312.751 262.411Z" fill="#263238"/>
<path d="M336.332 262.412C336.009 262.412 335.74 262.142 335.74 261.819V235.277C335.74 234.954 336.009 234.684 336.332 234.684C336.655 234.684 336.924 234.954 336.924 235.277V261.873C336.87 262.142 336.655 262.412 336.332 262.412Z" fill="#263238"/>
<path d="M324.542 238.238C324.057 238.238 312.213 238.184 312.213 235.438C312.213 232.692 324.057 232.639 324.542 232.639C325.027 232.639 336.871 232.692 336.871 235.438C336.871 238.238 325.027 238.238 324.542 238.238ZM313.397 235.438C313.882 236.03 317.866 237.107 324.542 237.107C331.433 237.107 335.418 236.03 335.741 235.438C335.418 234.9 331.433 233.823 324.542 233.823C317.812 233.823 313.828 234.846 313.397 235.438Z" fill="#263238"/>
<path d="M257.241 155.11C257.026 155.11 256.865 155.003 256.757 154.841C256.595 154.572 256.703 154.195 256.972 154.034C259.233 152.741 259.18 149.296 258.91 147.411C258.48 143.966 257.134 141.543 254.926 140.089C254.442 139.766 253.903 139.497 253.257 139.228C252.234 138.797 251.158 138.528 250.027 138.205C247.766 137.613 245.451 137.02 243.674 135.351C242.059 133.898 241.359 131.475 241.736 128.837C243.997 112.093 246.258 102.725 246.474 101.756C246.204 97.3948 244.159 93.8953 240.444 91.3648C235.221 87.8653 227.845 86.95 222.623 86.8424C222.3 86.8424 222.031 86.5732 222.085 86.2501C222.085 85.9271 222.354 85.7117 222.677 85.7117C228.115 85.8194 235.706 86.7347 241.144 90.4496C245.235 93.1954 247.443 97.0179 247.712 101.81C247.712 101.863 247.712 101.917 247.712 101.971C247.712 102.079 245.343 111.447 242.974 128.998C242.651 131.26 243.243 133.305 244.589 134.49C246.151 135.944 248.25 136.482 250.458 137.074C251.588 137.397 252.773 137.666 253.85 138.097C254.549 138.366 255.142 138.689 255.68 139.012C258.211 140.628 259.718 143.373 260.203 147.142C260.687 150.965 259.772 153.71 257.672 154.949C257.403 155.11 257.349 155.11 257.241 155.11Z" fill="#263238"/>
<path d="M202.381 104.663C202.112 104.663 201.842 104.448 201.788 104.125C200.012 88.619 208.411 87.2731 208.734 87.2192C209.38 86.95 210.51 86.6808 211.856 86.4116C212.179 86.3578 212.449 86.5731 212.556 86.8962C212.61 87.2192 212.395 87.4884 212.072 87.5961C210.833 87.8114 209.757 88.0806 209.057 88.3498C208.626 88.4037 201.304 89.6958 202.973 104.017C203.027 104.34 202.758 104.609 202.488 104.663C202.435 104.663 202.435 104.663 202.381 104.663Z" fill="#263238"/>
<path d="M277.108 245.237C276.947 245.237 276.839 245.183 276.731 245.075C258.265 228.924 216.808 226.286 216.378 226.286C216.055 226.286 215.839 226.016 215.839 225.693C215.839 225.37 216.162 225.209 216.432 225.155C216.862 225.155 258.749 227.847 277.485 244.268C277.7 244.483 277.754 244.86 277.539 245.075C277.431 245.183 277.27 245.237 277.108 245.237Z" fill="#263238"/>
<path d="M290.514 256.597C290.406 256.597 290.353 256.597 290.245 256.543C289.976 256.382 289.868 256.058 289.976 255.789C302.036 232.477 283.73 192.044 272.37 173.9C269.463 169.27 266.233 164.317 262.518 159.956C259.126 155.972 254.604 153.441 249.435 150.749C249.166 150.588 249.058 150.265 249.166 149.942C249.327 149.672 249.65 149.565 249.973 149.672C255.034 152.311 259.88 155.056 263.379 159.148C267.202 163.617 270.432 168.57 273.34 173.254C285.669 192.959 303.274 232.585 290.999 256.274C290.891 256.489 290.73 256.597 290.514 256.597Z" fill="#263238"/>
<path d="M171.1 182.784C171.046 182.784 170.938 182.784 170.885 182.73C170.615 182.622 170.454 182.245 170.562 181.976C170.777 181.491 170.992 180.953 171.208 180.468C180.091 160.01 191.882 148.542 207.334 145.365C208.518 145.096 212.179 144.504 212.179 144.504L212.395 145.635C212.395 145.635 208.787 146.281 207.603 146.496C192.313 149.619 181.114 160.548 172.284 180.899C172.069 181.384 171.854 181.868 171.638 182.407C171.531 182.622 171.315 182.784 171.1 182.784Z" fill="#263238"/>
<path d="M211.371 135.782C210.294 135.782 209.109 135.674 207.979 135.298C205.556 134.544 203.887 132.713 202.918 129.806C201.464 125.337 201.518 120.653 201.626 116.077V115.485C201.68 113.062 201.733 110.585 201.841 108.163L201.949 104.556C201.949 104.448 201.949 104.34 202.003 104.286C202.11 103.963 202.433 103.802 202.703 103.909C203.026 104.017 203.187 104.34 203.079 104.609L202.972 108.217C202.918 110.639 202.81 113.116 202.756 115.539V116.131C202.703 120.6 202.595 125.23 203.995 129.483C204.856 132.013 206.256 133.575 208.302 134.221C209.54 134.598 211.048 134.759 212.932 134.544C214.816 134.382 217.616 134.059 219.554 133.682C219.877 133.629 220.2 133.844 220.254 134.113C220.308 134.436 220.093 134.705 219.823 134.813C217.831 135.19 214.978 135.567 213.093 135.728C212.555 135.782 212.017 135.782 211.371 135.782Z" fill="#263238"/>
<path d="M227.092 113.116C211.586 110.262 206.848 100.787 205.448 96.2642C204.91 98.5254 203.995 101.917 203.079 104.609C202.972 104.932 202.649 105.04 202.326 104.986C202.003 104.878 201.841 104.555 201.949 104.232C203.456 99.9253 204.856 93.6799 204.856 93.6261C204.91 93.3569 205.125 93.1954 205.448 93.1954C205.717 93.1954 205.933 93.4107 205.987 93.7338C206.041 94.326 207.656 108.432 227.145 112.039C227.468 112.093 227.684 112.416 227.63 112.685C227.63 112.954 227.361 113.116 227.092 113.116Z" fill="#263238"/>
<path d="M217.025 110.855C216.54 110.801 216.271 110.962 216.109 112.631C215.948 114.462 216.432 114.785 216.863 114.785C217.294 114.785 217.671 114.193 217.671 112.9C217.671 111.555 217.617 110.962 217.025 110.855Z" fill="#263238"/>
<path d="M204.211 110.101C203.726 109.993 203.457 110.209 203.242 111.878C203.026 113.708 203.511 114.085 203.942 114.085C204.372 114.085 204.803 113.547 204.803 112.201C204.857 110.855 204.803 110.209 204.211 110.101Z" fill="#263238"/>
<path d="M202.541 106.763C202.379 106.763 202.218 106.709 202.11 106.547C201.895 106.332 201.949 105.955 202.164 105.74C202.864 105.094 204.156 104.34 206.579 104.986C206.902 105.094 207.063 105.363 207.01 105.686C206.956 106.009 206.633 106.171 206.31 106.117C204.425 105.632 203.564 106.063 202.918 106.601C202.81 106.709 202.649 106.763 202.541 106.763Z" fill="#263238"/>
<path d="M215.032 158.717C214.763 158.717 214.548 158.664 214.279 158.61C210.994 157.318 211.479 147.088 211.64 145.042L211.102 135.405C211.102 135.082 211.317 134.813 211.64 134.813C211.963 134.813 212.233 135.028 212.233 135.351L212.771 145.042C212.502 149.511 212.717 156.779 214.709 157.533C216.324 158.179 220.955 153.71 223.647 150.265C223.862 149.996 224.185 149.996 224.454 150.157C224.723 150.372 224.723 150.695 224.562 150.965C223.485 152.364 218.263 158.717 215.032 158.717Z" fill="#263238"/>
<path d="M205.611 146.334C205.449 146.334 205.234 146.227 205.126 146.065C200.765 139.874 206.472 133.844 206.526 133.79C206.742 133.575 207.118 133.575 207.334 133.79C207.549 134.005 207.549 134.382 207.334 134.598C207.118 134.813 202.219 139.981 206.042 145.365C206.203 145.635 206.149 146.011 205.88 146.173C205.826 146.334 205.719 146.334 205.611 146.334Z" fill="#263238"/>
<path d="M234.145 154.572C231.237 154.572 228.384 154.034 225.907 152.58C221.869 150.211 219.662 145.796 219.231 139.389C218.747 131.206 224.346 124.907 227.361 122.699C227.63 122.484 227.953 122.538 228.168 122.807C228.33 123.076 228.276 123.399 228.061 123.614C225.207 125.66 219.931 131.636 220.362 139.282C220.739 145.258 222.785 149.403 226.446 151.557C234.845 156.51 249.22 149.673 249.381 149.619C249.65 149.457 250.027 149.619 250.135 149.888C250.296 150.157 250.135 150.534 249.866 150.642C249.489 150.911 241.79 154.572 234.145 154.572Z" fill="#263238"/>
<path d="M253.635 233.231C253.259 233.177 253.043 232.908 253.043 232.585C255.035 212.557 243.837 179.284 243.729 178.961C243.621 178.638 243.783 178.315 244.106 178.207C244.429 178.1 244.752 178.261 244.86 178.584C244.967 178.907 256.22 212.449 254.228 232.692C254.174 232.962 253.958 233.231 253.635 233.231Z" fill="#263238"/>
<path d="M211.857 126.522C211.318 126.522 210.726 126.414 210.134 126.253C209.811 126.145 209.649 125.876 209.703 125.553C209.811 125.23 210.134 125.068 210.403 125.122C211.695 125.499 212.772 125.391 213.526 124.853C214.872 123.938 215.033 122.053 215.033 122.053C215.087 121.73 215.356 121.515 215.679 121.515C216.002 121.569 216.218 121.838 216.218 122.161C216.218 122.269 215.948 124.637 214.226 125.822C213.526 126.253 212.718 126.522 211.857 126.522Z" fill="#263238"/>
<path d="M264.619 95.1337H244.752C244.429 95.1337 244.16 94.8645 244.16 94.5415C244.16 94.2184 244.429 93.9492 244.752 93.9492H264.619C264.942 93.9492 265.211 94.2184 265.211 94.5415C265.211 94.8645 264.942 95.1337 264.619 95.1337Z" fill="#263238"/>
<path d="M202.165 95.1336H193.282C179.983 95.1336 169.162 84.312 169.162 71.0137V31.0113C169.162 17.7131 179.983 6.89142 193.282 6.89142H278.078C291.376 6.89142 302.198 17.7131 302.198 31.0113V71.0137C302.198 71.3368 301.929 71.606 301.606 71.606C301.283 71.606 301.013 71.3368 301.013 71.0137V31.0113C301.013 18.3591 290.73 8.02204 278.024 8.02204H193.282C180.629 8.02204 170.292 18.3053 170.292 31.0113V71.0137C170.292 83.6659 180.575 94.003 193.282 94.003H202.165C202.488 94.003 202.757 94.2722 202.757 94.5953C202.703 94.8644 202.488 95.1336 202.165 95.1336Z" fill="#263238"/>
<path d="M253.581 71.929H217.778C215.356 71.929 213.525 71.0676 212.61 69.5063C211.695 67.9449 211.91 65.9529 213.148 63.8532L230.969 33.3264C232.207 31.2267 233.876 30.0422 235.707 30.0422C237.537 30.0422 239.206 31.2267 240.445 33.3264L258.265 63.8532C259.504 65.9529 259.665 67.9988 258.804 69.5063C257.889 71.1214 256.004 71.929 253.581 71.929ZM235.653 31.2267C234.253 31.2267 232.961 32.1958 231.938 33.9186L214.117 64.4454C213.094 66.1682 212.933 67.7834 213.579 68.9679C214.279 70.1523 215.733 70.7984 217.725 70.7984H253.581C255.574 70.7984 257.081 70.1523 257.727 68.9679C258.427 67.7834 258.212 66.1682 257.189 64.4454L239.368 33.9186C238.399 32.1958 237.053 31.2267 235.653 31.2267Z" fill="#263238"/>
<path d="M106.493 218.264C105.362 218.264 104.178 217.94 102.939 217.348C100.732 216.218 98.6861 214.226 97.2324 211.695C94.1636 206.419 94.5943 200.443 98.1477 198.397C101.755 196.351 107.085 198.935 110.154 204.212C113.223 209.488 112.792 215.464 109.239 217.51C108.431 217.994 107.516 218.264 106.493 218.264ZM100.947 198.828C100.14 198.828 99.4398 198.989 98.7399 199.366C95.7249 201.089 95.5096 206.365 98.2015 211.103C99.5475 213.418 101.378 215.249 103.424 216.271C105.362 217.241 107.193 217.348 108.646 216.487C111.661 214.764 111.877 209.488 109.185 204.75C107.085 201.089 103.747 198.828 100.947 198.828Z" fill="#263238"/>
<path d="M382.202 257.028H341.016C340.693 257.028 340.423 256.759 340.423 256.435C340.423 256.112 340.693 255.843 341.016 255.843H382.202C382.526 255.843 382.795 256.112 382.795 256.435C382.795 256.812 382.526 257.028 382.202 257.028Z" fill="#263238"/>
<path d="M312.751 257.028H0.591741C0.268707 257.028 -0.000488281 256.759 -0.000488281 256.435C-0.000488281 256.112 0.268707 255.843 0.591741 255.843H312.804C313.128 255.843 313.397 256.112 313.397 256.435C313.343 256.812 313.074 257.028 312.751 257.028Z" fill="#263238"/>
<path d="M175.138 257.028C174.815 257.028 174.546 256.759 174.546 256.436C174.546 256.112 174.815 255.843 175.138 255.843C179.66 255.843 183.806 253.744 186.444 250.083C189.082 246.421 189.782 241.845 188.382 237.538L165.824 169.593C163.939 163.886 158.609 160.01 152.579 160.01H57.6071C56.5841 160.01 55.5073 160.117 54.5382 160.333C54.2152 160.387 53.8922 160.225 53.8383 159.902C53.7845 159.579 53.946 159.256 54.269 159.202C55.3458 158.933 56.4764 158.825 57.6071 158.825H152.579C159.094 158.825 164.854 162.971 166.9 169.162L189.405 237.161C190.966 241.845 190.159 246.745 187.305 250.729C184.506 254.767 180.037 257.028 175.138 257.028Z" fill="#263238"/>
<path d="M168.677 257.028H73.7045C67.1899 257.028 61.4292 253.044 59.3833 247.121L36.8247 182.084C35.3172 177.777 36.0171 173.146 38.6552 169.378C41.4549 165.447 46.1389 163.078 51.1459 163.078H146.118C152.633 163.078 158.393 167.063 160.439 172.985L182.944 238.022C184.451 242.33 183.752 246.96 181.113 250.729C178.314 254.659 173.684 257.028 168.677 257.028ZM51.1459 164.209C46.5157 164.209 42.2086 166.417 39.6243 170.024C37.1477 173.469 36.5555 177.723 37.9015 181.707L60.4062 246.744C62.2906 252.182 67.6207 255.897 73.6506 255.897H168.623C173.253 255.897 177.56 253.743 180.144 250.082C182.621 246.637 183.213 242.383 181.867 238.399L159.362 173.362C157.478 167.924 152.148 164.209 146.118 164.209H51.1459Z" fill="#263238"/>
<path d="M202.973 257.028C200.765 257.028 199.258 256.435 198.558 255.251C197.158 252.99 199.096 249.329 200.604 246.368C200.927 245.775 201.196 245.183 201.465 244.699C201.734 244.16 201.95 243.514 202.219 242.868C203.834 238.776 206.257 232.585 214.656 234.038C215.087 234.146 224.455 236.838 230.215 240.822C230.485 240.984 230.538 241.361 230.377 241.63C230.215 241.899 229.838 241.953 229.569 241.791C223.97 237.915 214.494 235.223 214.387 235.169C206.903 233.877 204.803 239.315 203.242 243.299C202.973 243.999 202.704 244.645 202.434 245.183C202.219 245.668 201.896 246.26 201.573 246.906C200.281 249.436 198.45 252.936 199.473 254.659C199.958 255.466 201.088 255.843 202.919 255.843C210.618 255.843 211.964 246.152 211.964 246.045C211.964 245.722 212.233 245.452 212.556 245.452C212.879 245.452 213.148 245.722 213.148 246.045C213.148 247.498 211.156 257.028 202.973 257.028Z" fill="#263238"/>
<path d="M196.134 257.028C191.504 256.705 189.889 255.089 189.351 253.797C188.597 251.967 189.512 250.082 190.589 248.844C191.45 247.875 192.366 245.56 193.335 243.137C194.681 239.692 196.188 235.815 198.288 233.5C202.111 229.354 209.971 233.715 210.294 233.931C210.563 234.092 210.671 234.469 210.509 234.738C210.348 235.008 209.971 235.115 209.702 234.954C209.648 234.9 202.326 230.808 199.149 234.308C197.211 236.407 195.704 240.23 194.412 243.568C193.389 246.26 192.473 248.521 191.45 249.652C190.643 250.567 189.889 252.074 190.428 253.367C191.02 254.82 193.012 255.682 196.188 255.897C196.511 255.897 196.727 256.22 196.727 256.489C196.673 256.812 196.404 257.028 196.134 257.028Z" fill="#263238"/>
<path d="M223.378 257.082C223.163 257.082 222.947 257.082 222.786 257.082C212.449 256.543 211.641 248.144 211.641 248.037C211.641 247.714 211.856 247.444 212.18 247.391C212.503 247.391 212.772 247.606 212.826 247.929C212.826 248.252 213.525 255.413 222.84 255.897C223.432 255.951 223.97 255.897 224.455 255.843C224.724 255.789 225.047 256.059 225.101 256.328C225.155 256.651 224.939 256.92 224.616 256.974C224.239 257.028 223.809 257.082 223.378 257.082Z" fill="#263238"/>
<path d="M223.054 257.028C222.839 257.028 222.678 256.92 222.57 256.758C222.408 256.489 222.462 256.112 222.731 255.951C227.9 252.559 230.538 246.206 229.569 239.799C228.169 231.023 220.255 224.94 211.964 226.232C209.218 226.662 205.072 227.847 200.227 232.962C200.011 233.177 199.634 233.231 199.419 233.015C199.204 232.8 199.15 232.423 199.419 232.208C204.48 226.824 208.895 225.586 211.802 225.101C220.686 223.647 229.246 230.216 230.7 239.638C231.776 246.475 228.923 253.259 223.377 256.92C223.27 257.028 223.162 257.028 223.054 257.028Z" fill="#263238"/>
<path d="M188.598 236.677C188.167 236.569 187.952 236.246 188.059 235.977C188.113 235.815 189.082 232.208 191.882 231.023C195.435 229.57 199.473 232.8 199.635 232.962C199.904 233.177 199.904 233.554 199.742 233.769C199.527 234.038 199.15 234.038 198.935 233.877C198.881 233.823 195.274 230.916 192.366 232.1C190.105 233.069 189.19 236.246 189.19 236.3C189.082 236.515 188.867 236.677 188.598 236.677Z" fill="#263238"/>
<path d="M185.583 256.435C184.56 256.435 183.376 256.166 182.084 255.466C181.815 255.305 181.707 254.982 181.868 254.659C182.03 254.39 182.407 254.282 182.676 254.443C186.822 256.758 189.46 253.582 189.567 253.474C189.783 253.205 190.106 253.205 190.375 253.367C190.644 253.582 190.644 253.905 190.483 254.174C190.429 254.174 188.544 256.435 185.583 256.435Z" fill="#263238"/>
<path d="M235.006 127.652H233.66C229.407 127.652 225.907 122.753 225.907 116.669C225.907 110.639 229.407 105.686 233.66 105.686H234.629C234.952 105.686 235.221 105.955 235.221 106.278C235.221 106.601 234.952 106.871 234.629 106.871H233.66C230.053 106.871 227.092 111.285 227.092 116.669C227.092 122.053 230.053 126.468 233.66 126.468H235.006C235.329 126.468 235.598 126.737 235.598 127.06C235.598 127.383 235.329 127.652 235.006 127.652Z" fill="#263238"/>
<path d="M235.222 127.652C231.723 127.652 229.031 122.861 229.031 116.669C229.031 110.532 231.777 105.686 235.222 105.686C238.722 105.686 241.414 110.478 241.414 116.669C241.414 122.807 238.722 127.652 235.222 127.652ZM235.222 106.871C232.476 106.871 230.161 111.339 230.161 116.669C230.161 121.999 232.476 126.468 235.222 126.468C237.968 126.468 240.283 121.999 240.283 116.669C240.283 111.393 237.968 106.871 235.222 106.871Z" fill="#263238"/>
<path d="M202.165 125.93C202.003 125.93 201.896 125.876 201.788 125.768C199.634 123.938 198.558 120.869 198.558 116.669C198.558 112.739 199.688 109.67 201.788 107.732C202.003 107.517 202.38 107.517 202.596 107.786C202.811 108.001 202.811 108.378 202.542 108.593C200.657 110.262 199.688 113.062 199.688 116.669C199.688 120.492 200.657 123.291 202.542 124.853C202.811 125.068 202.811 125.445 202.596 125.66C202.488 125.822 202.326 125.93 202.165 125.93Z" fill="#263238"/>
<path d="M235.653 106.763C235.33 106.763 235.06 106.494 235.06 106.171C235.653 88.296 223.216 87.0039 222.624 86.8424C222.57 86.8424 222.516 86.7886 222.462 86.7886C219.232 85.8733 216.217 85.9271 214.655 86.5194C217.724 86.9501 223.593 88.3499 227.738 92.7647C230.915 96.1566 232.422 100.679 232.261 106.171C232.261 106.494 231.991 106.709 231.668 106.709C231.345 106.709 231.076 106.44 231.13 106.117C231.292 100.948 229.892 96.6949 226.931 93.5723C221.547 87.8115 212.771 87.4885 212.663 87.4885C212.394 87.4885 212.179 87.3269 212.125 87.1116C212.071 86.8962 212.125 86.627 212.34 86.4655C212.502 86.3578 216.863 83.9889 222.893 85.1734C224.185 85.4964 236.891 88.0269 236.245 106.224C236.245 106.547 235.976 106.763 235.653 106.763Z" fill="#263238"/>
<path d="M190.859 232.908C190.59 232.908 190.374 232.746 190.321 232.477C180.576 197.105 188.329 175.085 188.382 174.869C188.49 174.546 188.813 174.439 189.136 174.546C189.459 174.654 189.567 174.977 189.459 175.3C189.405 175.515 181.76 197.212 191.397 232.208C191.505 232.531 191.29 232.854 191.021 232.908C190.967 232.854 190.913 232.908 190.859 232.908Z" fill="#263238"/>
<path d="M46.0853 165.071C45.87 165.071 45.7085 164.963 45.6008 164.801C45.4393 164.532 45.547 164.155 45.8161 163.994L54.1612 159.31C54.4304 159.148 54.8073 159.256 54.9688 159.525C55.1303 159.794 55.0226 160.171 54.7534 160.333L46.4084 165.017C46.2469 165.07 46.193 165.071 46.0853 165.071Z" fill="#263238"/>
<path d="M357.329 142.781C358.729 142.781 359.86 141.65 359.86 140.251C359.86 138.851 358.729 137.72 357.329 137.72C355.929 137.72 354.799 138.851 354.799 140.251C354.799 141.65 355.929 142.781 357.329 142.781Z" fill="#263238"/>
<path d="M376.873 142.943C378.326 142.943 379.511 141.758 379.511 140.305C379.511 138.851 378.326 137.666 376.873 137.666C375.419 137.666 374.234 138.851 374.234 140.305C374.234 141.758 375.419 142.943 376.873 142.943Z" fill="#263238"/>
<path d="M396.416 142.727C397.762 142.727 398.892 141.65 398.892 140.251C398.892 138.905 397.815 137.774 396.416 137.774C395.07 137.774 393.939 138.851 393.939 140.251C393.993 141.65 395.07 142.727 396.416 142.727Z" fill="#263238"/>
<path d="M357.329 162.486C358.783 162.486 359.967 161.302 359.967 159.848C359.967 158.394 358.783 157.21 357.329 157.21C355.875 157.21 354.691 158.394 354.691 159.848C354.691 161.302 355.875 162.486 357.329 162.486Z" fill="#263238"/>
<path d="M376.872 162.594C378.379 162.594 379.672 161.355 379.672 159.794C379.672 158.287 378.433 156.995 376.872 156.995C375.364 156.995 374.072 158.233 374.072 159.794C374.126 161.355 375.364 162.594 376.872 162.594Z" fill="#263238"/>
<path d="M396.416 162.432C397.816 162.432 399.001 161.302 399.001 159.848C399.001 158.448 397.87 157.264 396.416 157.264C395.016 157.264 393.832 158.394 393.832 159.848C393.886 161.248 395.016 162.432 396.416 162.432Z" fill="#263238"/>
<path d="M357.329 181.868C358.697 181.868 359.806 180.759 359.806 179.392C359.806 178.024 358.697 176.915 357.329 176.915C355.961 176.915 354.853 178.024 354.853 179.392C354.853 180.759 355.961 181.868 357.329 181.868Z" fill="#263238"/>
<path d="M376.873 181.976C378.273 181.976 379.457 180.845 379.457 179.392C379.457 177.992 378.326 176.807 376.873 176.807C375.473 176.807 374.289 177.938 374.289 179.392C374.289 180.791 375.473 181.976 376.873 181.976Z" fill="#263238"/>
<path d="M396.415 181.814C397.761 181.814 398.838 180.738 398.838 179.392C398.838 178.046 397.761 176.969 396.415 176.969C395.069 176.969 393.993 178.046 393.993 179.392C394.047 180.738 395.123 181.814 396.415 181.814Z" fill="#263238"/>
<path d="M264.619 135.298C264.565 135.298 264.457 135.298 264.403 135.244C264.188 135.136 264.026 134.921 264.026 134.705V85.0119C264.026 77.3129 270.326 71.0137 278.025 71.0137H352.107C359.806 71.0137 366.105 77.3129 366.105 85.0119V105.094C366.105 112.793 359.806 119.092 352.107 119.092H281.04L265.049 135.082C264.942 135.19 264.78 135.298 264.619 135.298ZM278.078 72.1444C270.972 72.1444 265.211 77.9051 265.211 85.0119V133.306L280.393 118.123C280.501 118.015 280.663 117.961 280.824 117.961H352.215C359.322 117.961 365.082 112.201 365.082 105.094V85.0119C365.082 77.9051 359.322 72.1444 352.215 72.1444H278.078Z" fill="#263238"/>
<path d="M315.12 101.217C311.405 101.217 308.39 98.2024 308.39 94.4875C308.39 90.7726 311.405 87.7576 315.12 87.7576C318.834 87.7576 321.849 90.7726 321.849 94.4875C321.796 98.2562 318.781 101.217 315.12 101.217ZM315.12 88.9959C312.051 88.9959 309.574 91.4725 309.574 94.5414C309.574 97.6102 312.051 100.087 315.12 100.087C318.188 100.087 320.665 97.6102 320.665 94.5414C320.665 91.4725 318.188 88.9959 315.12 88.9959Z" fill="#263238"/>
<path d="M285.777 101.217C282.062 101.217 279.047 98.2025 279.047 94.4876C279.047 90.7727 282.062 87.7577 285.777 87.7577C289.492 87.7577 292.507 90.7727 292.507 94.4876C292.507 98.2563 289.492 101.217 285.777 101.217ZM285.777 88.996C282.708 88.996 280.232 91.4726 280.232 94.5414C280.232 97.6102 282.708 100.087 285.777 100.087C288.846 100.087 291.323 97.6102 291.323 94.5414C291.323 91.4726 288.846 88.996 285.777 88.996Z" fill="#263238"/>
<path d="M345.593 101.217C341.878 101.217 338.863 98.2024 338.863 94.4875C338.863 90.7726 341.878 87.7576 345.593 87.7576C349.308 87.7576 352.323 90.7726 352.323 94.4875C352.323 98.2562 349.308 101.217 345.593 101.217ZM345.593 88.9959C342.524 88.9959 340.047 91.4725 340.047 94.5414C340.047 97.6102 342.524 100.087 345.593 100.087C348.662 100.087 351.138 97.6102 351.138 94.5414C351.138 91.4725 348.662 88.9959 345.593 88.9959Z" fill="#263238"/>
<path d="M153.817 145.581H103.1C102.777 145.581 102.508 145.312 102.508 144.988C102.508 144.665 102.777 144.396 103.1 144.396H153.009L140.734 109.67H90.2866C89.9635 109.67 89.6943 109.401 89.6943 109.078C89.6943 108.755 89.9635 108.486 90.2866 108.486H141.164C141.434 108.486 141.649 108.647 141.703 108.862L154.409 144.719C154.463 144.881 154.463 145.096 154.355 145.258C154.194 145.473 153.978 145.581 153.817 145.581Z" fill="#263238"/>
<path d="M103.099 145.581C102.884 145.581 102.615 145.419 102.561 145.204L89.855 109.347C89.7473 109.024 89.9088 108.701 90.2319 108.593C90.5549 108.486 90.8779 108.647 90.9856 108.97L103.692 144.827C103.799 145.15 103.638 145.473 103.315 145.581C103.207 145.581 103.153 145.581 103.099 145.581Z" fill="#263238"/>
<path d="M93.0318 117.261H64.0663C63.7433 117.261 63.4741 116.992 63.4741 116.669C63.4741 116.346 63.7433 116.077 64.0663 116.077H93.0318C93.3548 116.077 93.624 116.346 93.624 116.669C93.624 116.992 93.3548 117.261 93.0318 117.261Z" fill="#263238"/>
<path d="M99.6546 109.724C99.4392 109.724 99.17 109.562 99.1162 109.347L92.3325 90.2341H54.3759C54.0529 90.2341 53.7837 89.965 53.7837 89.6419C53.7837 89.3189 54.0529 89.0497 54.3759 89.0497H92.7632C93.0324 89.0497 93.2477 89.2112 93.3016 89.4266L100.193 108.916C100.301 109.239 100.139 109.562 99.8161 109.67C99.8161 109.724 99.7084 109.724 99.6546 109.724Z" fill="#263238"/>
<path d="M64.0671 117.261C63.8517 117.261 63.5825 117.1 63.5287 116.884L53.9453 89.8573C53.8377 89.5342 53.9992 89.2112 54.3222 89.1035C54.6452 88.9959 54.9683 89.1574 55.076 89.4804L64.6593 116.508C64.767 116.831 64.6055 117.154 64.2824 117.261C64.2286 117.208 64.1209 117.261 64.0671 117.261Z" fill="#263238"/>
<path d="M136.805 123.991H104.609C104.286 123.991 104.017 123.722 104.017 123.399C104.017 123.076 104.286 122.807 104.609 122.807H136.805C137.128 122.807 137.397 123.076 137.397 123.399C137.397 123.722 137.128 123.991 136.805 123.991Z" fill="#263238"/>
<path d="M139.442 131.313H107.247C106.923 131.313 106.654 131.044 106.654 130.721C106.654 130.398 106.923 130.129 107.247 130.129H139.442C139.765 130.129 140.035 130.398 140.035 130.721C140.035 131.044 139.765 131.313 139.442 131.313Z" fill="#263238"/>
<path d="M83.1812 151.503C83.0735 151.503 82.912 151.449 82.8582 151.395C81.0815 150.049 79.3586 148.542 77.7973 146.981C77.5819 146.765 77.5819 146.388 77.7973 146.173C78.0127 145.958 78.3895 145.958 78.6049 146.173C80.1662 147.734 81.8352 149.134 83.5581 150.48C83.8273 150.696 83.8811 151.019 83.6658 151.288C83.5581 151.449 83.3427 151.503 83.1812 151.503ZM73.8132 142.135C73.6517 142.135 73.4363 142.081 73.3287 141.92C71.9827 140.143 70.7982 138.259 69.6676 136.267C69.5061 135.997 69.6138 135.621 69.883 135.459C70.1522 135.298 70.529 135.405 70.6905 135.674C71.7673 137.613 72.9518 139.443 74.2439 141.166C74.4593 141.435 74.4054 141.812 74.1362 141.974C74.0824 142.135 73.9747 142.135 73.8132 142.135ZM67.4064 130.56C67.191 130.56 66.9756 130.398 66.868 130.183C66.3834 128.945 65.9527 127.706 65.522 126.36C65.4143 126.037 65.5758 125.714 65.8989 125.66C66.2219 125.553 66.5449 125.714 66.5988 126.037C66.9756 127.329 67.4064 128.568 67.8909 129.752C67.9986 130.075 67.8371 130.398 67.5679 130.506C67.5679 130.56 67.514 130.56 67.4064 130.56Z" fill="#263238"/>
<path d="M207.602 122.161C206.579 122.161 205.556 121.73 204.91 120.922C204.156 120.061 203.941 118.877 204.264 117.746C204.749 116.238 205.825 116.346 206.418 116.454C206.579 116.454 206.741 116.508 206.794 116.454C207.117 115.592 207.441 112.147 207.548 110.047C207.548 109.724 207.764 109.562 208.14 109.509C208.463 109.509 208.679 109.778 208.679 110.101C208.625 110.639 208.302 115.592 207.871 116.831C207.494 117.746 206.687 117.692 206.256 117.584C205.718 117.531 205.556 117.477 205.341 118.123C205.072 118.877 205.233 119.63 205.718 120.223C206.256 120.869 207.117 121.138 207.979 121.03C208.302 120.976 208.571 121.192 208.625 121.515C208.679 121.838 208.463 122.107 208.14 122.161C208.033 122.161 207.817 122.161 207.602 122.161Z" fill="#263238"/>
</svg>
